<?xml version="1.0" encoding="utf-8"?>
<!-- Generator: Adobe Illustrator 18.0.0, SVG Export Plug-In . SVG Version: 6.00 Build 0)  -->
<!DOCTYPE svg PUBLIC "-//W3C//DTD SVG 1.1//EN" "http://www.w3.org/Graphics/SVG/1.1/DTD/svg11.dtd">
<svg version="1.1" xmlns="http://www.w3.org/2000/svg" xmlns:xlink="http://www.w3.org/1999/xlink" x="0px" y="0px"
	 viewBox="0 0 64 64" enable-background="new 0 0 64 64" xml:space="preserve">
<g id="background">
		<path fill="#FCFCFC" stroke="#2B215F" stroke-width="1" stroke-linecap="round" stroke-linejoin="round" stroke-miterlimit="10" d="
		M32.5,14v-2c0-1.9,0.7-3.7,2-5s3-2.2,4.8-2.4C41.1,4.4,43,4.9,44.5,6c1.5,1.1,2.5,2.7,2.9,4.6c0.4,0,0.8-0.1,1.1-0.1
		c2.4,0,4.7,0.7,6.7,2.1c2,1.3,3.5,3.3,4.4,5.5c0.9,2.2,1.1,4.7,0.6,7c-0.5,2.3-1.7,4.5-3.5,6.1c1,0.7,1.9,1.7,2.5,2.8
		c0.6,1.1,1,2.3,1.2,3.6c0.1,1.3,0,2.5-0.4,3.7c-0.4,1.2-1,2.3-1.9,3.2c0.4,1.8,0.5,3.6,0.1,5.4c-0.3,1.8-1.1,3.5-2.1,5
		c-1.1,1.5-2.4,2.8-4,3.7c-1.6,0.9-3.3,1.5-5.2,1.7c-1.8,0.2-3.7,0-5.4-0.5c-1.8-0.6-3.4-1.5-4.7-2.7c-1.4-1.2-2.5-2.7-3.2-4.4
		c-0.7-1.7-1.1-3.5-1.1-5.3c0,1.8-0.4,3.7-1.1,5.3c-0.7,1.7-1.8,3.2-3.2,4.4c-1.4,1.2-3,2.1-4.7,2.7c-1.8,0.6-3.6,0.7-5.4,0.5
		c-1.8-0.2-3.6-0.8-5.2-1.7c-1.6-0.9-2.9-2.2-4-3.7c-1.1-1.5-1.8-3.2-2.1-5c-0.3-1.8-0.3-3.7,0.1-5.4c-0.9-0.9-1.5-2-1.9-3.2
		c-0.4-1.2-0.5-2.5-0.4-3.7c0.1-1.3,0.5-2.5,1.2-3.6c0.6-1.1,1.5-2,2.5-2.8c-1.7-1.6-3-3.8-3.5-6.1c-0.5-2.3-0.3-4.8,0.6-7
		c0.9-2.2,2.4-4.1,4.4-5.5c2-1.3,4.3-2.1,6.7-2.1c0.4,0,0.8,0,1.1,0.1C18,8.7,19,7.1,20.5,6c1.5-1.1,3.3-1.6,5.2-1.4
		c1.9,0.2,3.6,1,4.8,2.4s1.9,3.2,1.9,5C32.5,12,32.5,14,32.5,14z"/>
</g>
<g id="outline">
	<path fill="none" stroke="#2B215F" stroke-width="1" stroke-linecap="round" stroke-linejoin="round" stroke-miterlimit="10" d="
		M58.2,44.5c-0.8,0.9-1.9,1.7-3,2.2c-1.1,0.5-2.4,0.8-3.6,0.8h-4"/>
	<path fill="none" stroke="#2B215F" stroke-width="1" stroke-linecap="round" stroke-linejoin="round" stroke-miterlimit="10" d="
		M6.8,44.5c0.8,0.9,1.9,1.7,3,2.2c1.1,0.5,2.4,0.8,3.6,0.8h4"/>
	<path fill="none" stroke="#2B215F" stroke-width="1" stroke-linecap="round" stroke-linejoin="round" stroke-miterlimit="10" d="
		M22.5,21.5H25c2,0,3.9-0.8,5.3-2.2c1.4-1.4,2.2-3.3,2.2-5.3v-2c0-1.9-0.7-3.7-1.9-5s-3-2.2-4.8-2.4C23.9,4.4,22,4.9,20.5,6
		C19,7.1,18,8.7,17.6,10.6c-0.4,0-0.8-0.1-1.1-0.1c-2.4,0-4.7,0.7-6.7,2.1c-2,1.3-3.5,3.3-4.4,5.5c-0.9,2.2-1.1,4.7-0.6,7
		c0.5,2.3,1.7,4.5,3.5,6.1c-1,0.7-1.9,1.7-2.5,2.8c-0.6,1.1-1,2.3-1.2,3.6c-0.1,1.3,0,2.5,0.4,3.7c0.4,1.2,1,2.3,1.9,3.2
		c-0.4,1.8-0.5,3.6-0.1,5.4c0.3,1.8,1.1,3.5,2.1,5c1.1,1.5,2.4,2.8,4,3.7c1.6,0.9,3.3,1.5,5.2,1.7c1.8,0.2,3.7,0,5.4-0.5
		c1.8-0.6,3.4-1.5,4.7-2.7c1.4-1.2,2.5-2.7,3.2-4.4c0.7-1.7,1.1-3.5,1.1-5.3"/>
	<path fill="none" stroke="#2B215F" stroke-width="1" stroke-linecap="round" stroke-linejoin="round" stroke-miterlimit="10" d="
		M42.5,21.5H40c-2,0-3.9-0.8-5.3-2.2c-1.4-1.4-2.2-3.3-2.2-5.3v-2c0-1.9,0.7-3.7,2-5s3-2.2,4.8-2.4C41.1,4.4,43,4.9,44.5,6
		c1.5,1.1,2.5,2.7,2.9,4.6c0.4,0,0.8-0.1,1.1-0.1c2.4,0,4.7,0.7,6.7,2.1c2,1.3,3.5,3.3,4.4,5.5c0.9,2.2,1.1,4.7,0.6,7
		c-0.5,2.3-1.7,4.5-3.5,6.1c1,0.7,1.9,1.7,2.5,2.8c0.6,1.1,1,2.3,1.2,3.6c0.1,1.3,0,2.5-0.4,3.7c-0.4,1.2-1,2.3-1.9,3.2
		c0.4,1.8,0.5,3.6,0.1,5.4c-0.3,1.8-1.1,3.5-2.1,5c-1.1,1.5-2.4,2.8-4,3.7c-1.6,0.9-3.3,1.5-5.2,1.7c-1.8,0.2-3.7,0-5.4-0.5
		c-1.8-0.6-3.4-1.5-4.7-2.7c-1.4-1.2-2.5-2.7-3.2-4.4c-0.7-1.7-1.1-3.5-1.1-5.3"/>
	<path fill="none" stroke="#2B215F" stroke-width="1" stroke-linecap="round" stroke-linejoin="round" stroke-miterlimit="10" d="
		M46.5,30.5c0.8,0.6,1.5,1.5,1.8,2.5c0.3,1,0.3,2.1,0,3.1c-0.3,1-1,1.9-1.8,2.5c-0.9,0.6-1.9,0.9-2.9,0.9"/>
	<path fill="none" stroke="#2B215F" stroke-width="1" stroke-linecap="round" stroke-linejoin="round" stroke-miterlimit="10" d="
		M18.5,30.5C17.7,31.1,17,32,16.7,33c-0.3,1-0.3,2.1,0,3.1c0.3,1,1,1.9,1.8,2.5c0.9,0.6,1.9,0.9,2.9,0.9"/>
	<path fill="none" stroke="#2B215F" stroke-width="1" stroke-linecap="round" stroke-linejoin="round" stroke-miterlimit="10" d="
		M32.5,47.4V36.5"/>
	<path fill="none" stroke="#2B215F" stroke-width="1" stroke-linecap="round" stroke-linejoin="round" stroke-miterlimit="10" d="
		M19.5,24.5c1.7,0,3-1.3,3-3s-1.3-3-3-3s-3,1.3-3,3S17.8,24.5,19.5,24.5z"/>
	<path fill="none" stroke="#2B215F" stroke-width="1" stroke-linecap="round" stroke-linejoin="round" stroke-miterlimit="10" d="
		M20.5,50.5c1.7,0,3-1.3,3-3s-1.3-3-3-3s-3,1.3-3,3S18.8,50.5,20.5,50.5z"/>
	<path fill="none" stroke="#2B215F" stroke-width="1" stroke-linecap="round" stroke-linejoin="round" stroke-miterlimit="10" d="
		M32.5,36.5c1.7,0,3-1.3,3-3c0-1.7-1.3-3-3-3c-1.7,0-3,1.3-3,3C29.5,35.2,30.8,36.5,32.5,36.5z"/>
	<path fill="none" stroke="#2B215F" stroke-width="1" stroke-linecap="round" stroke-linejoin="round" stroke-miterlimit="10" d="
		M45.5,24.5c1.7,0,3-1.3,3-3s-1.3-3-3-3s-3,1.3-3,3S43.8,24.5,45.5,24.5z"/>
	<path fill="none" stroke="#2B215F" stroke-width="1" stroke-linecap="round" stroke-linejoin="round" stroke-miterlimit="10" d="
		M44.5,50.5c1.7,0,3-1.3,3-3s-1.3-3-3-3s-3,1.3-3,3S42.8,50.5,44.5,50.5z"/>
	<path fill="none" stroke="#2B215F" stroke-width="1" stroke-linecap="round" stroke-linejoin="round" stroke-miterlimit="10" d="
		M48.5,34.5c3.1,0,6-1.2,8.2-3.3"/>
	<path fill="none" stroke="#2B215F" stroke-width="1" stroke-linecap="round" stroke-linejoin="round" stroke-miterlimit="10" d="
		M8.3,31.2c2.2,2.1,5.2,3.3,8.2,3.3"/>
</g>
</svg>
