<svg width="73" height="55" viewBox="0 0 73 55" fill="none" xmlns="http://www.w3.org/2000/svg">
<g clip-path="url(#clip0)">
<path d="M72.8367 22.9437C72.8367 23.92 72.3468 24.7336 71.2036 25.3845L43.9307 41.0058C41.481 42.4703 37.0716 42.3076 34.2953 40.6803L2.77629 22.6182C1.14318 21.6419 0.326631 20.5028 0.489938 19.3638V32.0561C0.489938 33.1951 1.3065 34.3342 2.77629 35.3105L34.2953 53.3727C37.2349 54.9999 41.481 55.1626 43.9307 53.6981L71.2036 38.0768C72.3468 37.4259 72.8367 36.6123 72.8367 35.636V22.9437Z" fill="white"/>
<path d="M39.6846 55.0002C41.3177 55.0002 42.9508 54.6748 44.094 54.0239L71.3669 38.4026C72.5101 37.7517 73.1633 36.7754 73.1633 35.7991V23.1067C73.1633 22.944 73 22.7813 72.8367 22.7813C72.6734 22.7813 72.6734 22.7813 72.5101 22.944C72.5101 22.944 72.3468 23.1067 72.3468 23.2695C72.3468 24.0831 71.8568 24.8967 70.877 25.3849L43.7673 40.6807C41.3177 41.9825 37.2349 41.8198 34.4586 40.3553L2.9396 22.2931C1.4698 21.4795 0.653244 20.5032 0.816551 19.3641C0.816551 19.2014 0.816544 19.2014 0.653236 19.0387C0.653236 19.0387 0.489929 18.876 0.326622 18.876C0.163315 18.876 0 19.0387 0 19.2014V31.8937C0 33.1955 0.979866 34.3346 2.61298 35.3109L34.132 53.6985C35.7651 54.5121 37.7248 55.0002 39.6846 55.0002ZM72 35.5C72 36.3136 71.4799 37.0118 70.5 37.5L43 53C40.5503 54.3018 37.2349 53.9645 34.4586 52.5L2.9396 34C1.4698 33.1864 0.836693 33.0328 1 31.8937V21.5C1.48993 22.1509 1.79642 22.4559 2.61298 22.944L34.132 40.8434C37.0716 42.4707 41.6443 42.7961 44.094 41.1689L71.3669 25.7103C71.8568 25.3849 71.6734 25.3254 72 25V35.5Z" fill="#2B215F"/>
<path d="M34.2953 40.6809C37.2349 42.3081 41.481 42.4709 43.9306 41.0064L71.2036 25.3851C73.6532 23.9206 73.3266 21.4797 70.5503 19.8525L39.0313 1.62767C36.0917 0.000452429 31.8456 -0.162269 29.396 1.30223L2.12304 16.9235C-0.326629 18.388 9.53674e-07 20.8289 2.77628 22.4561L34.2953 40.6809Z" fill="white"/>
<path d="M39.6846 42.3078C41.3177 42.3078 42.9508 41.9823 44.094 41.3315L71.3669 25.7102C72.5101 25.0593 73.1633 24.0829 73.1633 22.9439C73.1633 21.6421 72.1834 20.5031 70.5503 19.5267L39.1946 1.4646C36.255 -0.162623 31.6823 -0.488067 29.2327 1.13915L1.95973 16.7605C0.816559 17.4113 0.163307 18.3877 0.163307 19.5267C0.163307 20.8285 1.14318 21.9676 2.77629 22.9439L34.132 40.8433C35.7651 41.8196 37.7248 42.3078 39.6846 42.3078ZM33.5 1C35.2964 1 37.5302 1.68639 39 2.5L70 20.5C71.4698 21.3136 72 21.8609 72 23C72 23.8136 71.5302 24.5118 70.5503 25L43.5 40C41.0503 41.3018 37.7763 40.9645 35 39.5L3 22C1.5302 21.1864 1 20.6391 1 19.5C1 18.6864 1.52013 17.9882 2.5 17.5L29.5 2C30.4799 1.34911 32.0302 1 33.5 1Z" fill="#2B215F"/>
<path d="M4.40939 30.2664C4.40939 30.5918 4.5727 30.9173 4.89932 31.08L31.1924 46.2131C31.3557 46.3758 31.6823 46.2131 31.6823 45.8877C31.6823 45.5622 31.519 45.2368 31.1924 45.0741L4.89932 29.9409C4.5727 29.9409 4.40939 29.9409 4.40939 30.2664Z" fill="white"/>
<path d="M31.1924 46.7014C31.3557 46.7014 31.3557 46.7014 31.519 46.7014C31.6823 46.5387 31.8456 46.3759 31.8456 46.0505C31.8456 45.5623 31.519 45.0742 31.1924 44.9114L4.89932 29.7783C4.73601 29.6156 4.40939 29.6156 4.24608 29.7783C4.08277 29.941 3.91946 30.1037 3.91946 30.4292C3.91946 30.9173 4.24608 31.4055 4.5727 31.5682L30.8658 46.7014C30.8658 46.5387 31.0291 46.7014 31.1924 46.7014ZM4.73601 30.4292L30.8658 45.3996C31.0291 45.3996 31.1924 45.725 31.1924 45.8878L5.06263 30.9173C4.89932 30.7546 4.73601 30.5919 4.73601 30.4292Z" fill="#2B215F"/>
</g>
<defs>
<clipPath id="clip0">
<rect width="73" height="55" fill="white"/>
</clipPath>
</defs>
</svg>
