<svg width="93" height="60" viewBox="0 0 93 60" fill="none" xmlns="http://www.w3.org/2000/svg">
<g clip-path="url(#clip0)">
<path d="M60.3356 6.69023L53.2618 10.8714L42.443 4.59964L49.5168 0.418457L60.3356 6.69023Z" fill="white"/>
<path d="M48.4765 5.2269L46.604 4.1816L48.8926 2.92725L50.7651 3.97254L48.4765 5.2269Z" fill="white"/>
<path d="M54.094 8.36313L52.2215 7.31783L54.302 6.06348L56.1745 7.10877L54.094 8.36313Z" fill="white"/>
<path d="M56.5906 12.9617L60.3356 10.8711V6.68994L53.2617 10.8711L55.5503 12.3345C55.9664 12.3345 56.3826 12.7527 56.5906 12.9617Z" fill="white"/>
<path d="M2.7047 21.9514C-0.624155 23.8329 -0.208048 27.1778 3.53692 29.4775L10.1946 33.4496C13.9396 35.7493 19.7651 35.9583 23.094 34.0768L55.9664 15.0524C57.2148 14.4252 57.0067 13.1709 55.5503 12.3346L40.1544 3.34508C38.698 2.50885 36.6175 2.50885 35.3691 3.13603L2.7047 21.9514Z" fill="white"/>
<path d="M17.4765 35.5402C14.7718 35.5402 12.0671 34.913 9.98658 33.6587L3.32886 29.8956C1.24832 28.6412 0 26.9688 0 25.2963C0 23.8329 0.832215 22.5785 2.49664 21.7423L35.3691 2.71789C36.8255 1.88166 39.1141 2.09072 40.5705 2.92695L55.9664 11.9165C56.7987 12.3346 57.4228 13.1709 57.4228 13.798C57.4228 14.4252 57.0067 15.0524 56.3825 15.4705L23.5101 34.4949C21.8456 35.1221 19.7651 35.5402 17.4765 35.5402ZM2.91275 22.3695C1.66443 23.2057 0.832215 24.0419 0.832215 25.2963C0.832215 26.7597 1.87248 28.0141 3.74497 29.0594L10.4027 33.0315C14.1477 35.1221 19.7651 35.3311 22.8859 33.6587L55.7584 14.6343C55.9664 14.4252 56.3825 14.2162 56.3825 13.798C56.3825 13.3799 55.9664 12.9618 55.3423 12.5437L39.9463 3.55413C38.698 2.7179 36.6175 2.71789 35.5772 3.34507L2.91275 22.3695Z" fill="#2B215F"/>
<path d="M56.7987 13.7979C56.7987 14.216 56.5906 14.6341 55.9664 15.0522L23.094 34.0766C19.7651 35.7491 13.9396 35.54 10.1946 33.4494L3.53691 29.6864C1.45638 28.432 0.416107 26.9686 0.416107 25.5052C0.416107 25.5052 0.416107 31.1498 0.416107 32.1951C0.416107 33.6585 1.45638 35.1219 3.53691 36.3762L10.1946 40.1393C13.9396 42.439 19.7651 42.648 23.094 40.7665L55.9664 21.7421C56.5906 21.324 56.7987 20.9059 56.7987 20.4877C56.7987 19.8606 56.7987 13.7979 56.7987 13.7979Z" fill="white"/>
<path d="M17.4765 42.4388C14.7718 42.4388 12.0671 41.8116 9.98658 40.5572L3.32886 36.7942C1.24832 35.5398 0 33.8673 0 32.1949C0 30.9405 0 25.505 0 25.505C0 25.2959 0 25.0869 0.208054 25.0869C0.416107 25.0869 0.416107 25.0869 0.624161 25.0869C0.832215 25.0869 0.832215 25.2959 0.832215 25.505C0.832215 26.9684 1.87248 28.2227 3.74497 29.268L10.4027 33.0311C14.1477 35.1217 19.7651 35.3308 22.8859 33.6583L55.7584 14.6339C55.9664 14.4248 56.1745 14.0067 56.1745 13.7977C56.1745 13.5886 56.1745 13.5886 56.3825 13.3795C56.3825 13.3795 56.5906 13.1705 56.7987 13.3795C57.0067 13.3795 57.2148 13.5886 57.2148 13.7977C57.2148 13.7977 57.2148 20.0694 57.2148 20.4876C57.2148 21.1147 56.7987 21.7419 56.1745 22.16L23.302 41.1844C21.8456 42.0207 19.7651 42.4388 17.4765 42.4388ZM0.832215 27.8046C0.832215 29.4771 0.832215 31.3586 0.832215 32.1949C0.832215 33.6583 1.87248 34.9126 3.74497 35.9579L10.4027 39.721C14.1477 41.8116 19.7651 42.0207 22.8859 40.3482L55.7584 21.3238C55.9664 21.1147 56.3825 20.9057 56.3825 20.4876C56.3825 20.0694 56.3825 17.1426 56.3825 15.2611H56.1745L23.302 34.2855C19.9732 36.167 13.9396 35.9579 9.98658 33.6583L3.32886 29.8952C2.28859 29.268 1.45638 28.6409 0.832215 27.8046Z" fill="#2B215F"/>
<path d="M15.1879 28.8504C15.396 29.8957 13.9396 30.732 11.8591 30.732C9.98659 30.732 8.11411 29.6867 8.11411 28.4323C8.11411 27.178 9.36243 26.5508 11.443 26.5508C13.5235 26.7598 15.1879 27.5961 15.1879 28.8504Z" fill="white"/>
<path d="M12.2752 31.1497H12.0671C9.77852 31.1497 8.11409 29.8954 7.90604 28.641C7.90604 28.2229 7.90604 27.5957 8.32214 27.1776C8.94631 26.5504 10.1946 26.1323 11.651 26.1323C13.9396 26.1323 15.604 27.3867 15.8121 28.641C15.8121 29.0592 15.8121 29.6863 15.396 30.1044C14.5638 30.7316 13.5235 31.1497 12.2752 31.1497ZM11.2349 26.9686C10.1946 26.9686 9.36241 27.1776 8.94631 27.8048C8.73825 28.0139 8.73825 28.2229 8.73825 28.432C8.73825 29.2682 10.1946 30.1045 12.0671 30.3135C13.1074 30.3135 14.1476 30.1045 14.5638 29.4773C14.7718 29.2682 14.7718 29.0592 14.7718 28.8501C14.7718 28.0139 13.3154 27.1776 11.4429 26.9686H11.2349Z" fill="#2B215F"/>
<path d="M37.2416 38.0483C35.9933 38.6755 36.2013 39.9299 37.6577 40.7661L53.0537 49.7556C54.5101 50.5919 56.5906 50.5919 57.8389 49.9647L90.7114 30.9403C94.0403 29.0588 93.6242 25.7138 89.8792 23.4142L83.2215 19.6511C79.4765 17.3515 73.651 17.1424 70.3221 19.0239L37.2416 38.0483Z" fill="white"/>
<path d="M55.5504 50.8012C54.5101 50.8012 53.4698 50.5921 52.6376 49.9649L37.2416 40.9754C36.4094 40.5573 35.7852 39.721 35.7852 39.0939C35.7852 38.4667 36.2014 37.8395 36.8255 37.4214L69.698 18.397C73.0269 16.5155 79.0604 16.7245 83.0134 19.0242L89.6712 22.7872C91.7517 24.0416 93 25.7141 93 27.3865C93 28.85 92.1678 30.1043 90.5034 30.9405L57.8389 50.174C57.2148 50.5921 56.3826 50.8012 55.5504 50.8012ZM37.4497 38.4667C37.2416 38.6757 36.8255 38.8848 36.8255 39.3029C36.8255 39.721 37.2416 40.1391 37.8658 40.5573L53.2618 49.5468C54.5101 50.174 56.5906 50.383 57.6309 49.7559L90.5034 30.7315C91.7517 29.8952 92.5839 29.059 92.5839 27.8047C92.5839 26.3412 91.5436 25.0869 89.6712 24.0416L83.0134 20.2785C79.2685 18.1879 73.651 17.9789 70.5302 19.6513L37.4497 38.4667Z" fill="#2B215F"/>
<path d="M77.8121 24.0422C77.604 22.9969 79.0604 22.1606 81.141 22.1606C83.0134 22.1606 84.8859 23.2059 84.8859 24.4603C85.094 25.5056 83.6376 26.3418 81.5571 26.3418C79.6846 26.1328 78.0201 25.2965 77.8121 24.0422Z" fill="white"/>
<path d="M81.7651 26.7596H81.5571C79.2685 26.7596 77.604 25.5053 77.396 24.2509C77.396 23.8328 77.396 23.2056 77.8121 22.7875C78.4363 22.1603 79.6846 21.7422 81.141 21.7422C83.4296 21.7422 85.094 22.9965 85.302 24.2509C85.302 24.669 85.302 25.2962 84.8859 25.7143C84.2618 26.3415 83.2215 26.7596 81.7651 26.7596ZM80.9329 22.5784C79.8926 22.5784 79.0604 22.7875 78.6443 23.4147C78.4363 23.6237 78.4363 23.8328 78.4363 24.0418C78.4363 24.8781 79.8926 25.7143 81.7651 25.9234C82.8054 25.9234 83.8457 25.7143 84.2618 25.0871C84.4698 24.8781 84.4698 24.669 84.4698 24.46C84.4698 23.6237 83.0134 22.7875 81.141 22.5784C80.9329 22.5784 80.9329 22.5784 80.9329 22.5784Z" fill="#2B215F"/>
<path d="M92.5839 27.5962C92.5839 28.8505 91.7517 29.8958 90.2953 30.7321L57.4228 49.7565C56.1745 50.3836 54.094 50.3836 52.6376 49.5474L37.4497 40.7669C36.6175 40.3488 36.2014 39.7216 36.2014 39.3035C36.2014 39.3035 36.2014 45.5753 36.2014 45.9934C36.2014 46.6206 36.6175 47.0387 37.4497 47.4568L52.8456 56.4464C54.302 57.2826 56.3826 57.2826 57.6309 56.6554L90.5034 37.631C91.9597 36.7948 92.792 35.5404 92.792 34.4951C92.5839 33.6589 92.5839 27.5962 92.5839 27.5962Z" fill="white"/>
<path d="M55 58C53.9597 58 52.3322 57.1272 51.5 56.5L37 48C36.1678 47.5819 35.7852 46.4112 35.7852 45.784C35.7852 45.3659 35.7852 39.0941 35.7852 39.0941C35.7852 38.8851 35.9933 38.676 35.9933 38.676C36.2014 38.676 36.2014 38.676 36.4094 38.676C36.6175 38.676 36.8255 39.0052 36.8255 39.2142C36.8255 39.6324 37 39.5 37.5 40L53 49C54.2483 49.6272 56.1745 50.1742 57.2148 49.5471L90.0873 30.5227C91.3356 29.6864 91.9597 28.8502 92.1678 27.5959C92.1678 27.3868 92.3759 27.1777 92.5839 27.1777C92.792 27.1777 93 27.3868 93 27.5959C93 27.5959 93 33.6586 93 34.2857C93 35.7492 92.6644 37.1638 91 38L58 57.5C57.5839 57.9181 55.8322 58 55 58ZM36.8255 40.7666C36.8255 42.6481 36.8255 45.5749 36.8255 45.9931C36.8255 46.4112 37.2416 46.8293 37.8658 47.2474L53.2618 56.237C54.5101 57.0732 56.5906 57.0732 57.6309 56.446L90.5034 37.4216C91.7517 36.5854 92 35.7544 92 34.5C92 34.0819 92 32.6725 92 31C91.5 31 91.7517 30.9408 91.1275 31.3589L57.8389 50.1742C56.3826 51.0105 54.094 50.8014 52.6376 49.9652L37.2416 40.9756C37.0336 40.9756 37.0336 40.9756 36.8255 40.7666Z" fill="#2B215F"/>
<path d="M41.4027 55.4007L30.5839 49.1289V53.3101L41.4027 59.5819V55.4007Z" fill="white"/>
</g>
<defs>
<clipPath id="clip0">
<rect width="93" height="60" fill="white"/>
</clipPath>
</defs>
</svg>
