<svg width="94" height="57" viewBox="0 0 94 57" fill="none" xmlns="http://www.w3.org/2000/svg">
<g clip-path="url(#clip0)">
<path d="M70.3371 16.0181C70.3371 15.186 70.967 13.9378 71.5969 13.7297C72.2268 13.3137 72.8567 13.7297 72.8567 14.7699C72.8567 15.602 72.2268 16.8502 71.5969 17.0582C70.967 17.2662 70.3371 16.8502 70.3371 16.0181Z" fill="white"/>
<path d="M71.177 17.4743C70.967 17.4743 70.757 17.4743 70.5471 17.2663C70.1271 17.0583 69.9172 16.4342 69.9172 15.8101C69.9172 14.77 70.5471 13.5218 71.3869 13.1057C71.8068 12.8977 72.2268 12.8977 72.6467 13.1057C73.0666 13.3138 73.2766 13.9378 73.2766 14.5619C73.2766 15.6021 72.6467 16.8503 71.8068 17.2663C71.5969 17.4743 71.3869 17.4743 71.177 17.4743ZM72.2268 13.9378H72.0168C71.3869 14.3539 70.967 15.186 70.967 16.0181C70.967 16.4342 71.177 16.6422 71.177 16.6422C71.3869 16.6422 71.3869 16.6422 71.5969 16.6422C72.2268 16.2262 72.6467 15.394 72.6467 14.5619C72.4367 14.1459 72.2268 13.9378 72.2268 13.9378Z" fill="#2B215F"/>
<path d="M63.6184 8.94508C63.8283 8.73706 64.2483 8.73706 64.4582 8.94508L72.4368 13.5217C72.2268 13.3137 72.0168 13.5217 71.5969 13.5217C70.967 13.9378 70.3371 14.9779 70.3371 15.81C70.3371 16.2261 70.5471 16.6422 70.7571 16.8502L62.7785 12.2736C62.5686 12.0655 62.3586 11.8575 62.3586 11.2334C62.3586 10.4013 62.9885 9.36114 63.6184 8.94508Z" fill="white"/>
<path d="M70.7571 17.4743H70.5471L62.5686 12.8977C62.1486 12.6896 61.9387 12.0655 61.9387 11.4415C61.9387 10.4013 62.5686 9.15314 63.4084 8.73708C63.8283 8.52905 64.2482 8.52905 64.6682 8.73708L72.6467 13.3137C72.8567 13.5217 72.8567 13.7298 72.8567 13.9378C72.6467 14.1458 72.4367 14.1458 72.2268 14.1458C72.0168 14.1458 72.0168 14.1458 71.8069 14.1458C71.177 14.5619 70.7571 15.394 70.7571 16.2261C70.7571 16.6422 70.967 16.8502 70.967 16.8502C71.177 16.6422 71.3869 16.8502 71.177 17.0582C71.177 17.2663 70.967 17.2663 70.7571 17.4743C70.967 17.4743 70.7571 17.4743 70.7571 17.4743ZM64.0383 9.36116H63.8283C63.1984 9.77722 62.7785 10.6093 62.7785 11.4415C62.7785 11.8575 62.9885 12.0655 62.9885 12.0655L69.9172 16.0181C69.9172 14.978 70.5471 13.9378 71.177 13.3137L64.0383 9.36116C64.2482 9.36116 64.0383 9.36116 64.0383 9.36116Z" fill="#2B215F"/>
<path d="M70.5471 15.8101C70.5471 16.6422 70.967 16.8502 71.5969 16.6422C72.2268 16.2261 72.6467 15.394 72.6467 14.7699C72.6467 13.9378 72.2268 13.7298 71.5969 13.9378C70.967 14.1459 70.5471 15.186 70.5471 15.8101Z" fill="white"/>
<path d="M71.177 17.2663C70.967 17.2663 70.757 17.2663 70.757 17.0582C70.3371 16.8502 70.1272 16.4342 70.1272 15.8101C70.1272 14.9779 70.757 13.9378 71.3869 13.5217C71.8069 13.3137 72.2268 13.3137 72.4367 13.5217C72.8567 13.7298 73.0666 14.1458 73.0666 14.7699C73.0666 15.602 72.4367 16.6422 71.8069 17.0582C71.5969 17.0582 71.3869 17.2663 71.177 17.2663ZM72.0168 14.1458C71.3869 14.5619 70.967 15.186 70.967 15.8101C70.967 16.0181 70.967 16.2261 71.177 16.2261H71.3869C71.8069 16.0181 72.2268 15.186 72.2268 14.5619C72.2268 14.3539 72.2268 14.1458 72.0168 14.1458Z" fill="#2B215F"/>
<path d="M88.8138 26.8357L43.4621 0.832065C42.4122 0.207977 40.5226 0.207977 39.2628 1.04009L1.46974 22.6751C0.209967 23.2992 0.209967 24.5474 1.25977 24.9635L46.6115 50.9671C47.6613 51.5912 49.5509 51.5912 50.8107 50.7591L88.6038 29.124C89.8636 28.5 89.8636 27.4598 88.8138 26.8357Z" fill="white"/>
<path d="M48.2912 51.7998C47.4513 51.7998 46.8214 51.5917 46.1915 51.3837L0.839846 25.5881C0.419923 25.172 0 24.5479 0 24.1319C0 23.5078 0.419923 22.8837 1.25977 22.4676L39.2628 0.624567C40.7325 -0.20755 42.6222 -0.20755 43.882 0.416537L89.2337 26.4202C89.8636 26.8362 90.0735 27.2523 90.0735 27.8764C90.0735 28.5005 89.6536 29.1246 88.8137 29.5406L50.8107 51.1757C50.1808 51.5917 49.131 51.7998 48.2912 51.7998ZM41.7824 0.832596C40.9425 0.832596 40.3126 1.04063 39.6827 1.45668L1.67969 23.0917C1.25977 23.2998 0.839846 23.7158 0.839846 24.1319C0.839846 24.3399 1.04981 24.756 1.25977 24.756L46.6115 50.7596C47.4513 51.3837 49.341 51.1757 50.3908 50.5516L88.3938 28.9165C88.8137 28.7085 89.2337 28.2925 89.2337 27.8764C89.2337 27.6684 89.0237 27.2523 88.8137 27.2523L43.2521 1.24865C42.8322 1.04063 42.4122 0.832596 41.7824 0.832596Z" fill="#2B215F"/>
<path d="M88.1839 28.7079C89.2337 28.0838 89.2337 27.2517 88.3938 26.8356L43.2521 0.831959C42.4123 0.415901 40.9425 0.415901 39.8927 1.03999L34.2238 4.16043L82.7249 31.8283L88.1839 28.7079Z" fill="white"/>
<path d="M82.7249 32.2444H82.5149L34.0138 4.57653C33.8038 4.57653 33.8038 4.3685 33.8038 4.16047C33.8038 3.95244 33.8038 3.95244 34.0138 3.74441L39.4728 0.623973C40.7326 -0.000114739 42.4122 -0.000114739 43.4621 0.415944L88.8137 26.4196C89.2337 26.6276 89.6536 27.2517 89.6536 27.6678C89.6536 28.2919 89.2337 28.7079 88.6038 29.124L83.1448 32.2444C82.9348 32.2444 82.7249 32.2444 82.7249 32.2444ZM35.0636 4.16047L82.7249 31.4123L87.9739 28.2919C88.3938 28.0838 88.6038 27.8758 88.6038 27.6678C88.6038 27.4597 88.3938 27.2517 88.1839 27.2517L42.8322 1.24806C42.2023 0.832002 40.7326 0.832002 39.8927 1.45609L35.0636 4.16047Z" fill="#2B215F"/>
<path d="M82.7249 31.829L88.1839 28.7086C88.8138 28.5005 89.0237 28.0845 89.0237 27.6684C89.0237 27.6684 89.0237 27.6684 89.0237 27.8765C89.0237 28.2925 88.8138 28.7086 88.1839 28.9166L82.7249 32.037L34.2238 4.36916V4.16113L82.7249 31.829Z" fill="white"/>
<path d="M82.7249 32.4527H82.5149L34.0138 4.78477C33.8038 4.78477 33.8038 4.57675 33.8038 4.36872V4.16069C33.8038 3.95266 33.8038 3.95266 34.0138 3.74463C34.2237 3.74463 34.2237 3.74463 34.4337 3.74463L82.7249 31.4125L87.9739 28.2921C88.3938 28.084 88.6038 27.876 88.6038 27.668C88.6038 27.46 88.8138 27.2519 89.0237 27.2519C89.2337 27.2519 89.4436 27.2519 89.4436 27.46V27.668V27.876C89.4436 28.5001 89.0237 28.9162 88.3938 29.3322L82.9348 32.4527H82.7249Z" fill="#2B215F"/>
<path d="M1.88966 22.8834C0.839853 23.5075 0.839853 24.3396 1.6797 24.7556L47.0314 50.7593C47.8712 51.1754 49.341 51.1754 50.3908 50.5513L52.0705 49.7192L3.35939 22.0513L1.88966 22.8834Z" fill="white"/>
<path d="M48.2912 51.5915C47.6613 51.5915 47.0314 51.3834 46.6115 51.1754L1.25977 25.1718C0.839845 24.9637 0.419922 24.3396 0.419922 23.9236C0.419922 23.2995 0.839845 22.8834 1.46973 22.4674L3.14942 21.6353C3.35938 21.6353 3.35938 21.6353 3.56935 21.6353L52.0705 49.3031C52.2804 49.3031 52.2804 49.5112 52.2804 49.7192C52.2804 49.9272 52.2804 49.9272 52.0705 50.1353L50.3908 50.9674C49.9709 51.3834 49.131 51.5915 48.2912 51.5915ZM2.09961 23.2995C1.67969 23.5075 1.46973 23.7155 1.46973 23.9236C1.46973 24.1316 1.67969 24.3396 1.88965 24.3396L47.2414 50.3433C47.8712 50.7594 49.341 50.7593 50.1808 50.1353L51.0207 49.5112L3.35938 22.4674L2.09961 23.2995Z" fill="#2B215F"/>
<path d="M34.2237 4.36865L3.35938 22.0511L51.8605 49.719L82.7249 32.0365L34.2237 4.36865Z" fill="white"/>
<path d="M51.8605 50.1351H51.6505L3.14941 22.4672C2.93945 22.4672 2.93945 22.2592 2.93945 22.0512C2.93945 21.8431 2.93945 21.8431 3.14941 21.6351L34.0138 3.95264C34.2237 3.95264 34.2237 3.95264 34.4337 3.95264L82.9348 31.6205C83.1448 31.6205 83.1448 31.8285 83.1448 32.0366C83.1448 32.2446 83.1448 32.2446 82.9348 32.4526L52.0705 50.1351C52.0705 50.1351 52.0705 50.1351 51.8605 50.1351ZM4.40918 22.0512L52.0705 49.303L81.885 32.0366L34.2237 4.78475L4.40918 22.0512Z" fill="#2B215F"/>
<path d="M35.9183 21.0231C36.773 21.1779 37.4236 20.2701 37.0024 19.5104C36.6358 18.8492 35.7053 18.7953 35.2648 19.4099C34.8243 20.0244 35.1743 20.8883 35.9183 21.0231Z" fill="white" stroke="#29225C"/>
<path d="M37.3787 20.9352C37.4778 20.7883 37.7084 20.7835 37.7943 20.9385L37.8135 20.973C37.9103 21.1477 37.7607 21.3565 37.5642 21.3209L37.5217 21.3132C37.3543 21.2829 37.2836 21.0763 37.3787 20.9352Z" fill="white" stroke="#29225C"/>
<path d="M11.0374 4.26989C10.8007 4.12918 10.6717 3.8301 10.7129 3.41308C10.7897 2.63338 11.4287 1.74191 12.1402 1.42199C12.4947 1.26265 12.8001 1.27558 13.0078 1.42488C13.0071 1.4244 13.0066 1.42382 13.0059 1.42324L36.1861 17.9386C36.3966 18.0886 36.5076 18.378 36.4689 18.7703C36.3919 19.5503 35.753 20.4418 35.0418 20.7615C34.6884 20.9204 34.3836 20.9083 34.1758 20.7602L10.9956 4.24499C11.0088 4.25435 11.0235 4.26159 11.0374 4.26989Z" fill="white" stroke="#29225C"/>
<path d="M11.0306 4.2449L34.2109 20.7601C34.4188 20.9082 34.7235 20.9203 35.0769 20.7615C35.7881 20.4419 36.427 19.5504 36.504 18.7703C36.5427 18.3779 36.4317 18.0885 36.2212 17.9386L13.0409 1.42334C13.2514 1.57332 13.3624 1.86275 13.3237 2.25506C13.2468 3.03505 12.6078 3.92652 11.8966 4.24625C11.5433 4.40501 11.2385 4.39295 11.0306 4.2449Z" fill="white" stroke="#29225C"/>
<path d="M10.748 3.41313C10.671 4.19312 11.1853 4.56623 11.8968 4.2463C12.608 3.92666 13.2469 3.0352 13.3239 2.25511C13.4007 1.47541 12.8865 1.1024 12.1753 1.42204C11.4638 1.74187 10.8249 2.63324 10.748 3.41313Z" fill="white" stroke="#29225C"/>
<path d="M10.4629 3.55189C10.2604 3.43154 10.15 3.17569 10.185 2.81899C10.2507 2.15192 10.7974 1.38939 11.4058 1.11598C11.7091 0.979611 11.9703 0.990613 12.1483 1.11839C12.1477 1.11801 12.1473 1.11752 12.1467 1.11704L12.7917 1.57672C12.9717 1.70498 13.0666 1.95243 13.0336 2.28809C12.9679 2.95517 12.4211 3.71788 11.8127 3.99139C11.5105 4.12718 11.2498 4.11686 11.072 3.99033L10.427 3.53066C10.4383 3.53857 10.451 3.54484 10.4629 3.55189Z" fill="white" stroke="#29225C"/>
<path d="M10.427 3.5308L11.0721 3.99048C11.2499 4.1171 11.5106 4.12752 11.8128 3.99154C12.4212 3.71803 12.9679 2.95541 13.0337 2.28824C13.0668 1.95267 12.9718 1.70513 12.7918 1.57686L12.1467 1.11719C12.3267 1.24545 12.4216 1.4929 12.3886 1.82856C12.3229 2.49564 11.7762 3.25835 11.1678 3.53186C10.8654 3.66785 10.6047 3.65742 10.427 3.5308Z" fill="white" stroke="#29225C"/>
<path d="M10.1852 2.81913C10.1195 3.48621 10.5595 3.80536 11.1679 3.53176C11.7763 3.25825 12.3229 2.49563 12.3887 1.82846C12.4544 1.16138 12.0144 0.842511 11.406 1.11602C10.7974 1.38963 10.2509 2.15205 10.1852 2.81913Z" fill="white" stroke="#29225C"/>
</g>
<defs>
<clipPath id="clip0">
<rect width="93.6429" height="57" fill="white"/>
</clipPath>
</defs>
</svg>
