<svg width="75" height="61" viewBox="0 0 75 61" fill="none" xmlns="http://www.w3.org/2000/svg">
<g clip-path="url(#clip0)">
<path d="M41.6107 38.6059L21.6443 27.0744C20.8054 26.573 19.9664 27.0744 19.9664 28.2442C19.9664 28.5785 19.7987 28.7456 19.4631 28.5785L2.01342 18.5511C1.00671 18.0497 0.335571 18.5511 0.335571 19.888V34.4278C0.335571 35.5976 1.1745 37.1017 2.01342 37.6031L41.6107 60.3319C42.6175 60.8333 43.2886 60.3319 43.2886 58.9949V41.6141C43.2886 40.4442 42.6175 39.1072 41.6107 38.6059Z" fill="white"/>
<path d="M42.2819 61.0003C41.9463 61.0003 41.7785 61.0003 41.443 60.8332L1.84564 37.9373C0.838926 37.4359 0 35.7647 0 34.4277V19.8879C0 19.0523 0.33557 18.551 0.838926 18.2167C1.1745 18.0496 1.67785 18.0496 2.18121 18.3838L19.6309 28.4112C19.6309 27.5756 19.9664 27.0742 20.302 26.74C20.6376 26.5729 21.3087 26.5729 21.8121 26.9071L41.7785 38.4386C42.7852 39.1071 43.6242 40.6112 43.6242 41.9482V59.4962C43.6242 60.3318 43.2886 60.8331 42.7852 61.1674C42.7852 61.0003 42.4497 61.0003 42.2819 61.0003ZM1.34228 18.7181C1.1745 18.7181 1.1745 18.7181 1.00671 18.7181C0.671141 18.8852 0.671141 19.2194 0.671141 19.7208V34.2605C0.671141 35.4304 1.34228 36.7674 2.18121 37.1016L41.7785 60.1647C41.9463 60.3318 42.2819 60.3318 42.4497 60.3318C42.7852 60.1647 42.7852 59.8304 42.7852 59.329V41.614C42.7852 40.6112 42.1141 39.2742 41.2752 38.7729L21.3087 27.2414C21.1409 27.0742 20.8054 27.0742 20.6376 27.0742C20.4698 27.2414 20.302 27.5756 20.302 28.077C20.302 28.4112 20.1342 28.7455 19.9664 28.7455C19.7987 28.9126 19.4631 28.9126 19.2953 28.7455L1.84564 18.7181C1.67785 18.8852 1.51007 18.7181 1.34228 18.7181Z" fill="#2B215F"/>
<path d="M41.6107 38.6057L21.6443 27.0742C21.4765 26.9071 21.1409 26.9071 20.9732 26.9071C20.302 26.9071 19.9664 27.4084 19.9664 28.4112C19.9664 28.7454 19.7987 28.9126 19.6309 28.9126H19.4631L2.01342 18.8852C1.84564 18.5509 1.51007 18.3838 1.34228 18.3838C0.671142 18.3838 0.335571 18.8852 0.335571 19.8879V34.4276C0.335571 35.5975 1.1745 37.1016 2.01342 37.603L41.6107 60.3317C41.7785 60.4989 42.1141 60.4989 42.2819 60.4989C42.953 60.4989 43.2886 59.9975 43.2886 58.9947V41.6139C43.2886 40.4441 42.6175 39.1071 41.6107 38.6057Z" fill="white"/>
<path d="M42.2819 61C41.9463 61 41.7785 61 41.443 60.8329L1.84564 37.937C0.838926 37.4356 0 35.7644 0 34.4274V19.8877C0 19.3863 0.167785 18.8849 0.33557 18.5507C0.503356 18.2164 1.00671 18.0493 1.34228 18.0493C1.67785 18.0493 1.84564 18.0493 2.18121 18.2164L19.6309 28.2438C19.6309 27.074 20.302 26.4055 20.9732 26.4055C21.3087 26.4055 21.4765 26.4055 21.8121 26.5726L41.7785 38.1041C42.7852 38.7726 43.6242 40.2767 43.6242 41.6137V59.1617C43.6242 60.4986 42.953 61 42.2819 61ZM1.34228 18.7178C1.1745 18.7178 1.00671 18.7178 0.838926 18.8849C0.671141 19.0521 0.671141 19.3863 0.671141 19.7205V34.2603C0.671141 35.4301 1.34228 36.7671 2.18121 37.1014L41.7785 60.1644C41.9463 60.3315 42.1141 60.3315 42.2819 60.3315C42.6174 60.3315 42.953 59.8301 42.953 59.1617V41.6137C42.953 40.611 42.2819 39.274 41.443 38.7726L21.4765 27.2411C21.3087 27.074 21.1409 27.074 20.9732 27.074C20.4698 27.074 20.302 27.7425 20.302 28.2438C20.302 28.7452 19.9664 29.0795 19.6309 29.0795C19.4631 29.0795 19.2953 29.0795 19.2953 28.9123L1.84564 18.8849C1.67785 18.8849 1.51007 18.7178 1.34228 18.7178Z" fill="#2B215F"/>
<path d="M15.1007 30.9172L3.18793 24.0652C2.85236 23.8981 2.51678 23.2296 2.51678 22.7282C2.51678 22.2268 2.85236 21.8926 3.18793 22.2268L15.1007 29.0789C15.4362 29.246 15.7718 29.9145 15.7718 30.4159C15.7718 30.9172 15.4362 31.2515 15.1007 30.9172Z" fill="white"/>
<path d="M15.4362 31.4189C15.2685 31.4189 15.1007 31.419 14.9329 31.2518L3.02014 24.3998C2.51678 24.0655 2.18121 23.397 2.18121 22.7285C2.18121 22.3943 2.349 22.06 2.68457 21.8929C2.85235 21.7258 3.18792 21.7258 3.35571 21.8929L15.2685 28.745C15.7718 29.0792 16.1074 29.7477 16.1074 30.4162C16.1074 30.7505 15.9396 31.0847 15.604 31.2518C15.604 31.419 15.4362 31.4189 15.4362 31.4189ZM2.85235 22.3943C2.85235 22.3943 2.85235 22.5614 2.85235 22.7285C2.85235 23.0628 3.18792 23.5642 3.35571 23.7313L15.2685 30.5833H15.4362C15.4362 30.5833 15.4362 30.4162 15.4362 30.2491C15.4362 29.9148 15.1007 29.4135 14.9329 29.2463L2.85235 22.3943C3.02014 22.5614 3.02014 22.3943 2.85235 22.3943Z" fill="#2B215F"/>
<path d="M15.1007 34.761L3.18793 27.9089C2.85236 27.7418 2.51678 27.0733 2.51678 26.5719C2.51678 26.0706 2.85236 25.7363 3.18793 26.0706L15.1007 32.7555C15.4362 32.9226 15.7718 33.5911 15.7718 34.0925C15.7718 34.761 15.4362 34.9281 15.1007 34.761Z" fill="white"/>
<path d="M15.1007 38.4377L3.18793 31.5857C2.85236 31.4186 2.51678 30.7501 2.51678 30.2487C2.51678 29.7473 2.85236 29.4131 3.18793 29.7473L15.1007 36.5994C15.4362 36.7665 15.7718 37.435 15.7718 37.9364C15.7718 38.4378 15.4362 38.772 15.1007 38.4377Z" fill="white"/>
<path d="M15.4362 36.9395C15.2685 36.9395 15.1007 36.9395 14.9329 36.7723L3.02014 29.9203C2.51678 29.586 2.18121 28.9175 2.18121 28.249C2.18121 27.9148 2.349 27.5806 2.68457 27.4134C2.85235 27.2463 3.18792 27.2463 3.5235 27.4134L15.4362 34.2655C15.9396 34.5997 16.2752 35.2682 16.2752 35.9367C16.2752 36.271 16.1074 36.6052 15.7718 36.7723C15.604 36.9395 15.4362 36.9395 15.4362 36.9395ZM2.85235 28.0819C2.85235 28.0819 2.85235 28.249 2.85235 28.4162C2.85235 28.7504 3.18792 29.2518 3.35571 29.4189L15.2685 36.271H15.4362C15.4362 36.271 15.4362 36.1038 15.4362 35.9367C15.4362 35.6025 15.1007 35.1011 14.9329 34.934L2.85235 28.0819C3.02014 28.0819 3.02014 28.0819 2.85235 28.0819Z" fill="#2B215F"/>
<path d="M15.1007 42.282L3.18793 35.4299C2.85236 35.2628 2.51678 34.5943 2.51678 34.0929C2.51678 33.5916 2.85236 33.2573 3.18793 33.5916L15.1007 40.2765C15.4362 40.4436 15.7718 41.1121 15.7718 41.6135C15.7718 42.282 15.4362 42.4491 15.1007 42.282Z" fill="white"/>
<path d="M15.4362 42.6162C15.2685 42.6162 15.1007 42.6162 14.9329 42.4491L3.02014 35.597C2.51678 35.2628 2.18121 34.5943 2.18121 33.9258C2.18121 33.5916 2.349 33.2573 2.68457 33.0902C2.85235 32.9231 3.18792 32.9231 3.5235 33.0902L15.4362 39.9422C15.9396 40.2765 16.2752 40.945 16.2752 41.6135C16.2752 41.9477 16.1074 42.282 15.7718 42.4491C15.604 42.6162 15.4362 42.6162 15.4362 42.6162ZM2.85235 33.7587C2.85235 33.7587 2.85235 33.9258 2.85235 34.0929C2.85235 34.4272 3.18792 34.9285 3.35571 35.0957L15.2685 41.9477H15.4362C15.4362 41.9477 15.4362 41.7806 15.4362 41.6135C15.4362 41.2792 15.1007 40.7779 14.9329 40.6107L2.85235 33.7587C3.02014 33.7587 3.02014 33.7587 2.85235 33.7587Z" fill="#2B215F"/>
<path d="M72.9866 20.3889L53.0201 9.02454C52.6846 8.85742 52.349 8.85742 52.0134 8.85742H51.8456L50 10.0273L20.6376 26.9067C20.9731 26.7396 21.3087 26.7396 21.8121 26.9067L41.7785 38.4382C42.6174 38.9396 43.4564 40.4437 43.4564 41.6136V59.1615C43.4564 59.83 43.2886 60.3314 42.7852 60.4985C42.7852 60.4985 73.8255 42.6163 74.1611 42.4492C74.4966 42.2821 74.6644 41.7807 74.6644 41.1122V23.5643C74.6644 22.3944 73.9933 21.0574 72.9866 20.3889Z" fill="white"/>
<path d="M42.7852 60.8329C42.6174 60.8329 42.6174 60.8329 42.6174 60.6658C42.6174 60.6658 42.4497 60.4987 42.4497 60.3316C42.4497 60.1644 42.4497 60.1644 42.6174 59.9973C42.5 59.5 42.6174 59.5014 42.6174 59V42C42.6174 40.9973 41.8389 39.5014 41 39L21.5 27.5C21 27 20.9732 27.074 20.8054 27.074C20.6376 27.2412 20.4698 27.074 20.302 26.9069C20.1342 26.7398 20.302 26.5727 20.4698 26.4055L51.8456 8.52335C52.349 8.35623 52.8523 8.35623 53.1879 8.69047L73.1544 20.222C74.1611 20.8905 75 22.3946 75 23.7316V41.2795C75 42.1151 74.6644 42.6165 74.1611 42.9507C73.8255 43.1179 43.1208 60.8329 42.7852 61.0001C42.7852 60.8329 42.7852 60.8329 42.7852 60.8329ZM21.8121 26.7398L41.9463 38.2713C42.953 38.9398 43.7919 40.4439 43.7919 41.7809V59.3288C43.7919 59.4959 43.7919 59.3329 43.7919 59.5C49.3289 56.3247 73.1644 42.6671 73.5 42.5C73.8356 42.3329 74.1611 41.7809 74.1611 41.2795L74 23.5C74 22.4973 73.3389 21.5014 72.5 21L52.8523 9.35897C52.6846 9.19184 52.349 9.19184 52.1812 9.19184L50.1678 10.3617L21.8121 26.7398Z" fill="#2B215F"/>
<path d="M50 10.0275L33.3893 0.501485C33.0537 0.334361 32.5503 0.167238 32.2148 0.334361C32.047 0.668608 1.00671 18.5508 1.00671 18.5508C1.34228 18.3837 1.67785 18.3837 2.01343 18.5508L19.4631 28.5782C19.7987 28.7453 19.9664 28.5782 19.9664 28.244C19.9664 27.5755 20.1342 27.0741 20.4698 26.907L50 10.0275Z" fill="white"/>
<path d="M19.7987 29.0795C19.6309 29.0795 19.4631 29.0795 19.4631 28.9123L2.01342 18.8849C1.84564 18.7178 1.51007 18.7178 1.34228 18.7178C1.1745 18.7178 1.1745 18.7178 1.00671 18.7178C0.838928 18.7178 0.838928 18.5507 0.838928 18.3836C0.838928 18.3836 0.838928 18.2164 1.00671 18.0493C1.00671 18.0493 1.1745 18.0493 1.1745 17.8822C1.67785 17.5479 3.02014 16.8795 5.87249 15.2082L16.6107 9.02466C24.3289 4.51233 32.2148 0 32.3825 0C32.5503 0 33.0537 0 33.557 0.167123L50.1678 9.69315C50.3356 9.86027 50.3356 10.0274 50.3356 10.0274C50.3356 10.0274 50.3356 10.1945 50.1678 10.3616L20.8054 27.2411C20.6376 27.4082 20.4698 27.7425 20.4698 28.2438C20.4698 28.5781 20.302 28.9123 20.1342 28.9123C19.9664 29.0795 19.7987 29.0795 19.7987 29.0795ZM2.5 18.0493L19.7987 28C19.7987 27.3315 20.1342 26.9068 20.4698 26.5726L49 10.0274L33 1C32.8322 0.832877 32.1678 1.5 32 1.5C31.4966 1.83425 7.70134 15.0411 2.5 18.0493Z" fill="#2B215F"/>
<path d="M36.1671 46.4628H36.1672L36.167 46.4585C36.0824 44.5205 35.4907 42.4591 34.5619 40.6719C33.6346 38.8876 32.3667 37.3678 30.9211 36.5191C30.2321 36.0059 29.5408 35.8341 28.8523 35.8341C27.8959 35.8341 27.0697 36.2685 26.4856 37.0657C25.9033 37.8606 25.5644 39.0113 25.5644 40.4464C25.5644 42.3875 26.1571 44.4507 27.1072 46.2382C28.0558 48.023 29.3657 49.542 30.8104 50.3901C31.4994 50.9034 32.1907 51.0752 32.8792 51.0752C33.8356 51.0752 34.6619 50.6408 35.2459 49.8435C35.8282 49.0487 36.1671 47.8979 36.1671 46.4628ZM32.8792 50.0396C32.3999 50.0396 31.9142 49.8812 31.2494 49.5504C30.0136 48.8106 28.8514 47.4083 27.9972 45.769C27.1429 44.1293 26.6034 42.265 26.6034 40.6135C26.6034 39.5383 26.8112 38.6383 27.177 38.0108C27.5413 37.3859 28.0574 37.0368 28.6846 37.0368C29.1638 37.0368 29.6496 37.1952 30.3144 37.526C31.5502 38.2658 32.7124 39.6681 33.5665 41.3073C34.4209 42.9471 34.9604 44.8114 34.9604 46.4628C34.9604 47.5381 34.7525 48.4381 34.3868 49.0656C34.0225 49.6905 33.5063 50.0396 32.8792 50.0396Z" fill="#2B215F" stroke="#2B215F" stroke-width="0.2"/>
</g>
<defs>
<clipPath id="clip0">
<rect width="75" height="61" fill="white"/>
</clipPath>
</defs>
</svg>
